<svg width="117" height="48" viewBox="0 0 117 48" fill="none" xmlns="http://www.w3.org/2000/svg">
<path d="M69.56 16.016C69.976 16.224 70.216 16.552 70.28 17C70.36 17.448 70.248 17.856 69.944 18.224C69.736 18.512 69.464 18.672 69.128 18.704C68.808 18.736 68.48 18.672 68.144 18.512C67.76 18.336 67.352 18.2 66.92 18.104C66.504 18.008 66.064 17.96 65.6 17.96C64.736 17.96 63.96 18.096 63.272 18.368C62.6 18.64 62.024 19.032 61.544 19.544C61.064 20.04 60.696 20.632 60.44 21.32C60.2 22.008 60.08 22.768 60.08 23.6C60.08 24.576 60.216 25.424 60.488 26.144C60.776 26.864 61.168 27.464 61.664 27.944C62.16 28.424 62.744 28.784 63.416 29.024C64.088 29.248 64.816 29.36 65.6 29.36C66.032 29.36 66.464 29.32 66.896 29.24C67.328 29.16 67.744 29.016 68.144 28.808C68.48 28.648 68.808 28.592 69.128 28.64C69.464 28.688 69.744 28.856 69.968 29.144C70.288 29.544 70.4 29.96 70.304 30.392C70.224 30.808 69.984 31.112 69.584 31.304C69.168 31.512 68.736 31.688 68.288 31.832C67.856 31.96 67.416 32.056 66.968 32.12C66.52 32.2 66.064 32.24 65.6 32.24C64.448 32.24 63.352 32.056 62.312 31.688C61.288 31.32 60.368 30.776 59.552 30.056C58.752 29.336 58.12 28.44 57.656 27.368C57.192 26.28 56.96 25.024 56.96 23.6C56.96 22.368 57.168 21.232 57.584 20.192C58.016 19.152 58.616 18.256 59.384 17.504C60.168 16.736 61.088 16.144 62.144 15.728C63.2 15.296 64.352 15.08 65.6 15.08C66.304 15.08 66.992 15.16 67.664 15.32C68.336 15.48 68.968 15.712 69.56 16.016ZM74.0469 32C73.6309 32 73.2869 31.864 73.0149 31.592C72.7429 31.304 72.6069 30.952 72.6069 30.536V20.624C72.6069 20.208 72.7429 19.864 73.0149 19.592C73.2869 19.304 73.6309 19.16 74.0469 19.16C74.4629 19.16 74.8069 19.304 75.0789 19.592C75.3509 19.864 75.4869 20.208 75.4869 20.624V22.88L75.3189 21.272C75.4949 20.888 75.7189 20.552 75.9909 20.264C76.2789 19.96 76.5989 19.712 76.9509 19.52C77.3029 19.312 77.6789 19.16 78.0789 19.064C78.4789 18.968 78.8789 18.92 79.2789 18.92C79.7589 18.92 80.1589 19.056 80.4789 19.328C80.8149 19.6 80.9829 19.92 80.9829 20.288C80.9829 20.816 80.8469 21.2 80.5749 21.44C80.3029 21.664 80.0069 21.776 79.6869 21.776C79.3829 21.776 79.1029 21.72 78.8469 21.608C78.6069 21.496 78.3269 21.44 78.0069 21.44C77.7189 21.44 77.4229 21.512 77.1189 21.656C76.8309 21.784 76.5589 21.992 76.3029 22.28C76.0629 22.568 75.8629 22.928 75.7029 23.36C75.5589 23.776 75.4869 24.272 75.4869 24.848V30.536C75.4869 30.952 75.3509 31.304 75.0789 31.592C74.8069 31.864 74.4629 32 74.0469 32ZM85.7251 30.536C85.7251 30.952 85.5891 31.304 85.3171 31.592C85.0451 31.864 84.7011 32 84.2851 32C83.8691 32 83.5251 31.864 83.2531 31.592C82.9811 31.304 82.8451 30.952 82.8451 30.536V20.624C82.8451 20.208 82.9811 19.864 83.2531 19.592C83.5251 19.304 83.8691 19.16 84.2851 19.16C84.7011 19.16 85.0451 19.304 85.3171 19.592C85.5891 19.864 85.7251 20.208 85.7251 20.624V30.536ZM84.2611 17.6C83.7171 17.6 83.3331 17.512 83.1091 17.336C82.8851 17.16 82.7731 16.848 82.7731 16.4V15.944C82.7731 15.48 82.8931 15.168 83.1331 15.008C83.3891 14.832 83.7731 14.744 84.2851 14.744C84.8451 14.744 85.2371 14.832 85.4611 15.008C85.6851 15.184 85.7971 15.496 85.7971 15.944V16.4C85.7971 16.864 85.6771 17.184 85.4371 17.36C85.1971 17.52 84.8051 17.6 84.2611 17.6ZM95.333 18.92C96.453 18.92 97.453 19.208 98.333 19.784C99.229 20.344 99.933 21.12 100.445 22.112C100.973 23.104 101.237 24.256 101.237 25.568C101.237 26.88 100.973 28.04 100.445 29.048C99.933 30.04 99.237 30.824 98.357 31.4C97.493 31.96 96.517 32.24 95.429 32.24C94.789 32.24 94.189 32.136 93.629 31.928C93.069 31.72 92.573 31.456 92.141 31.136C91.725 30.816 91.397 30.496 91.157 30.176C90.933 29.84 90.821 29.56 90.821 29.336L91.565 29.024V35.336C91.565 35.752 91.429 36.096 91.157 36.368C90.885 36.656 90.541 36.8 90.125 36.8C89.709 36.8 89.365 36.664 89.093 36.392C88.821 36.12 88.685 35.768 88.685 35.336V20.624C88.685 20.208 88.821 19.864 89.093 19.592C89.365 19.304 89.709 19.16 90.125 19.16C90.541 19.16 90.885 19.304 91.157 19.592C91.429 19.864 91.565 20.208 91.565 20.624V21.8L91.157 21.584C91.157 21.376 91.269 21.128 91.493 20.84C91.717 20.536 92.021 20.24 92.405 19.952C92.789 19.648 93.229 19.4 93.725 19.208C94.237 19.016 94.773 18.92 95.333 18.92ZM94.973 21.56C94.269 21.56 93.653 21.736 93.125 22.088C92.597 22.44 92.181 22.92 91.877 23.528C91.589 24.12 91.445 24.8 91.445 25.568C91.445 26.32 91.589 27.008 91.877 27.632C92.181 28.24 92.597 28.72 93.125 29.072C93.653 29.424 94.269 29.6 94.973 29.6C95.677 29.6 96.285 29.424 96.797 29.072C97.325 28.72 97.733 28.24 98.021 27.632C98.325 27.008 98.477 26.32 98.477 25.568C98.477 24.8 98.325 24.12 98.021 23.528C97.733 22.92 97.325 22.44 96.797 22.088C96.285 21.736 95.677 21.56 94.973 21.56ZM109.803 32.24C108.443 32.24 107.259 31.96 106.251 31.4C105.259 30.824 104.491 30.048 103.947 29.072C103.419 28.096 103.155 26.992 103.155 25.76C103.155 24.32 103.443 23.096 104.019 22.088C104.611 21.064 105.379 20.28 106.323 19.736C107.267 19.192 108.267 18.92 109.323 18.92C110.139 18.92 110.907 19.088 111.627 19.424C112.363 19.76 113.011 20.224 113.571 20.816C114.131 21.392 114.571 22.064 114.891 22.832C115.227 23.6 115.395 24.416 115.395 25.28C115.379 25.664 115.227 25.976 114.939 26.216C114.651 26.456 114.315 26.576 113.931 26.576H104.763L104.043 24.176H112.851L112.323 24.656V24.008C112.291 23.544 112.123 23.128 111.819 22.76C111.531 22.392 111.163 22.104 110.715 21.896C110.283 21.672 109.819 21.56 109.323 21.56C108.843 21.56 108.395 21.624 107.979 21.752C107.563 21.88 107.203 22.096 106.899 22.4C106.595 22.704 106.355 23.112 106.179 23.624C106.003 24.136 105.915 24.784 105.915 25.568C105.915 26.432 106.091 27.168 106.443 27.776C106.811 28.368 107.275 28.824 107.835 29.144C108.411 29.448 109.019 29.6 109.659 29.6C110.251 29.6 110.723 29.552 111.075 29.456C111.427 29.36 111.707 29.248 111.915 29.12C112.139 28.976 112.339 28.856 112.515 28.76C112.803 28.616 113.075 28.544 113.331 28.544C113.683 28.544 113.971 28.664 114.195 28.904C114.435 29.144 114.555 29.424 114.555 29.744C114.555 30.176 114.331 30.568 113.883 30.92C113.467 31.272 112.883 31.584 112.131 31.856C111.379 32.112 110.603 32.24 109.803 32.24Z" fill="#FE5F70"/>
<g clip-path="url(#clip0_1272_1052)">
<path d="M24 48C37.2548 48 48 37.2548 48 24C48 10.7452 37.2548 0 24 0C10.7452 0 0 10.7452 0 24C0 37.2548 10.7452 48 24 48Z" fill="url(#paint0_linear_1272_1052)"/>
<path fill-rule="evenodd" clip-rule="evenodd" d="M17.2399 13.7175C15.6874 15.28 14.6844 17.5492 14.2802 20.319C14.2133 20.7771 13.9513 21.1838 13.5618 21.4341C13.1723 21.6843 12.6935 21.7536 12.249 21.624C11.8066 21.4949 11.5296 21.8987 11.3903 22.2736C11.2096 22.76 11.1543 23.4658 11.3643 24.2496C11.5467 24.9302 12.1915 26.3453 13.1086 26.2602C13.8443 26.192 14.5312 26.6365 14.7702 27.3357C16.3962 32.091 20.4779 35.2 23.9996 35.2C27.5214 35.2 31.6033 32.0909 33.229 27.3352C33.4687 26.6342 34.1582 26.1894 34.8956 26.26C35.8129 26.3478 36.4591 24.9294 36.6412 24.2496C36.8513 23.4656 36.7959 22.76 36.6153 22.2736C36.4754 21.8974 36.1977 21.4941 35.7543 21.6246C35.3095 21.7555 34.8297 21.6872 34.4393 21.437C34.0489 21.1867 33.7862 20.7795 33.7191 20.3207C33.3151 17.5504 32.3122 15.2808 30.7598 13.7179C29.2353 12.1834 27.054 11.2 23.9996 11.2C20.9454 11.2 18.7643 12.1832 17.2399 13.7175ZM14.9699 11.462C17.1627 9.25507 20.1942 8 23.9996 8C27.8054 8 30.837 9.25533 33.0298 11.4627C34.879 13.3239 36.0375 15.7662 36.6306 18.4594C36.7178 18.476 36.805 18.4959 36.8921 18.5193C38.2825 18.8918 39.1788 19.9851 39.615 21.159C40.0526 22.3371 40.0938 23.7278 39.7322 25.0778C39.225 26.9706 37.8682 28.8379 35.889 29.3427C33.7265 34.5424 28.9377 38.4 23.9996 38.4C19.0609 38.4 14.2716 34.5414 12.1094 29.3408C10.1338 28.8331 8.77999 26.9685 8.27338 25.0778C7.91167 23.7278 7.95297 22.3371 8.39066 21.159C8.82682 19.9851 9.72305 18.8918 11.1134 18.5193C11.1983 18.4965 11.2833 18.477 11.3682 18.4607C11.9614 15.7666 13.1202 13.3237 14.9699 11.462Z" fill="white"/>
</g>
<defs>
<linearGradient id="paint0_linear_1272_1052" x1="24" y1="0" x2="24" y2="48" gradientUnits="userSpaceOnUse">
<stop stop-color="#FE5B70"/>
<stop offset="1" stop-color="#FF8956"/>
</linearGradient>
<clipPath id="clip0_1272_1052">
<rect width="48" height="48" fill="white"/>
</clipPath>
</defs>
</svg>
